<svg width="1206" height="160" viewBox="0 0 1206 160" fill="none" xmlns="http://www.w3.org/2000/svg">
<rect width="1206" height="160" fill="#161B22"/>
<path d="M541.219 91.6055C541.219 90.6914 541.078 89.8711 540.797 89.1445C540.539 88.3945 540.047 87.7148 539.32 87.1055C538.594 86.4727 537.574 85.8516 536.262 85.2422C534.949 84.6328 533.25 84 531.164 83.3438C528.844 82.5938 526.641 81.75 524.555 80.8125C522.492 79.875 520.664 78.7852 519.07 77.543C517.5 76.2773 516.258 74.8125 515.344 73.1484C514.453 71.4844 514.008 69.5508 514.008 67.3477C514.008 65.2148 514.477 63.2812 515.414 61.5469C516.352 59.7891 517.664 58.2891 519.352 57.0469C521.039 55.7812 523.031 54.8086 525.328 54.1289C527.648 53.4492 530.191 53.1094 532.957 53.1094C536.73 53.1094 540.023 53.7891 542.836 55.1484C545.648 56.5078 547.828 58.3711 549.375 60.7383C550.945 63.1055 551.73 65.8125 551.73 68.8594H541.254C541.254 67.3594 540.938 66.0469 540.305 64.9219C539.695 63.7734 538.758 62.8711 537.492 62.2148C536.25 61.5586 534.68 61.2305 532.781 61.2305C530.953 61.2305 529.43 61.5117 528.211 62.0742C526.992 62.6133 526.078 63.3516 525.469 64.2891C524.859 65.2031 524.555 66.2344 524.555 67.3828C524.555 68.25 524.766 69.0352 525.188 69.7383C525.633 70.4414 526.289 71.0977 527.156 71.707C528.023 72.3164 529.09 72.8906 530.355 73.4297C531.621 73.9688 533.086 74.4961 534.75 75.0117C537.539 75.8555 539.988 76.8047 542.098 77.8594C544.23 78.9141 546.012 80.0977 547.441 81.4102C548.871 82.7227 549.949 84.2109 550.676 85.875C551.402 87.5391 551.766 89.4258 551.766 91.5352C551.766 93.7617 551.332 95.7539 550.465 97.5117C549.598 99.2695 548.344 100.758 546.703 101.977C545.062 103.195 543.105 104.121 540.832 104.754C538.559 105.387 536.016 105.703 533.203 105.703C530.672 105.703 528.176 105.375 525.715 104.719C523.254 104.039 521.016 103.02 519 101.66C517.008 100.301 515.414 98.5664 514.219 96.457C513.023 94.3477 512.426 91.8516 512.426 88.9688H523.008C523.008 90.5625 523.254 91.9102 523.746 93.0117C524.238 94.1133 524.93 95.0039 525.82 95.6836C526.734 96.3633 527.812 96.8555 529.055 97.1602C530.32 97.4648 531.703 97.6172 533.203 97.6172C535.031 97.6172 536.531 97.3594 537.703 96.8438C538.898 96.3281 539.777 95.6133 540.34 94.6992C540.926 93.7852 541.219 92.7539 541.219 91.6055ZM587.203 53.8125H597.715V87.6328C597.715 91.5703 596.871 94.8867 595.184 97.582C593.52 100.277 591.211 102.305 588.258 103.664C585.328 105.023 581.953 105.703 578.133 105.703C574.312 105.703 570.914 105.023 567.938 103.664C564.984 102.305 562.664 100.277 560.977 97.582C559.312 94.8867 558.48 91.5703 558.48 87.6328V53.8125H569.027V87.6328C569.027 89.9297 569.391 91.8047 570.117 93.2578C570.844 94.7109 571.887 95.7773 573.246 96.457C574.629 97.1367 576.258 97.4766 578.133 97.4766C580.055 97.4766 581.684 97.1367 583.02 96.457C584.379 95.7773 585.41 94.7109 586.113 93.2578C586.84 91.8047 587.203 89.9297 587.203 87.6328V53.8125ZM606.398 53.8125H625.488C629.402 53.8125 632.766 54.3984 635.578 55.5703C638.414 56.7422 640.594 58.4766 642.117 60.7734C643.641 63.0703 644.402 65.8945 644.402 69.2461C644.402 71.9883 643.934 74.3438 642.996 76.3125C642.082 78.2578 640.781 79.8867 639.094 81.1992C637.43 82.4883 635.473 83.5195 633.223 84.293L629.883 86.0508H613.289L613.219 77.8242H625.559C627.41 77.8242 628.945 77.4961 630.164 76.8398C631.383 76.1836 632.297 75.2695 632.906 74.0977C633.539 72.9258 633.855 71.5664 633.855 70.0195C633.855 68.3789 633.551 66.9609 632.941 65.7656C632.332 64.5703 631.406 63.6562 630.164 63.0234C628.922 62.3906 627.363 62.0742 625.488 62.0742H616.945V105H606.398V53.8125ZM635.016 105L623.344 82.1836L634.488 82.1133L646.301 104.508V105H635.016ZM673.336 62.5664L659.414 105H648.199L667.219 53.8125H674.355L673.336 62.5664ZM684.902 105L670.945 62.5664L669.82 53.8125H677.027L696.152 105H684.902ZM684.27 85.9453V94.207H657.234V85.9453H684.27Z" fill="white"/>
</svg>
