<svg width="26" height="24" viewBox="0 0 26 24" fill="none" xmlns="http://www.w3.org/2000/svg">
<path d="M6.01945 19.6923L0.536377 24V1.23077C0.536377 0.904349 0.666047 0.591298 0.896861 0.360484C1.12767 0.12967 1.44073 0 1.76715 0H23.921C24.2474 0 24.5605 0.12967 24.7913 0.360484C25.0221 0.591298 25.1518 0.904349 25.1518 1.23077V18.4615C25.1518 18.788 25.0221 19.101 24.7913 19.3318C24.5605 19.5626 24.2474 19.6923 23.921 19.6923H6.01945ZM6.69022 8.61539V11.0769H9.15176V8.61539H6.69022ZM11.6133 8.61539V11.0769H14.0748V8.61539H11.6133ZM16.5364 8.61539V11.0769H18.9979V8.61539H16.5364Z" fill="#A9ABB0"/>
</svg>
