<svg width="28" height="24" viewBox="0 0 28 24" fill="none" xmlns="http://www.w3.org/2000/svg">
<path d="M3.26818 3H24.2682C25.0932 3 25.7682 2.325 25.7682 1.5C25.7682 0.675 25.0932 0 24.2682 0H3.26818C2.44318 0 1.76818 0.675 1.76818 1.5C1.76818 2.325 2.44318 3 3.26818 3ZM26.0082 5.7C25.8732 5.01 25.2582 4.5 24.5382 4.5H2.99818C2.27818 4.5 1.66318 5.01 1.52818 5.7L0.0281768 13.2C-0.151823 14.13 0.553177 15 1.49818 15H1.76818V22.5C1.76818 23.325 2.44318 24 3.26818 24H15.2682C16.0932 24 16.7682 23.325 16.7682 22.5V15H22.7682V22.5C22.7682 23.325 23.4432 24 24.2682 24C25.0932 24 25.7682 23.325 25.7682 22.5V15H26.0382C26.9832 15 27.6882 14.13 27.5082 13.2L26.0082 5.7ZM13.7682 21H4.76818V15H13.7682V21Z" fill="#A9ABB0"/>
</svg>
