<svg width="25" height="24" viewBox="0 0 25 24" fill="none" xmlns="http://www.w3.org/2000/svg">
<path d="M22.5364 0H2.53638C2.00594 0 1.49724 0.210714 1.12216 0.585786C0.747091 0.960859 0.536377 1.46957 0.536377 2V22C0.536377 22.5304 0.747091 23.0391 1.12216 23.4142C1.49724 23.7893 2.00594 24 2.53638 24H22.5364C23.0668 24 23.5755 23.7893 23.9506 23.4142C24.3257 23.0391 24.5364 22.5304 24.5364 22V2C24.5364 1.46957 24.3257 0.960859 23.9506 0.585786C23.5755 0.210714 23.0668 0 22.5364 0ZM19.5364 13H13.5364V19C13.5364 19.2652 13.431 19.5196 13.2435 19.7071C13.0559 19.8946 12.8016 20 12.5364 20C12.2712 20 12.0168 19.8946 11.8293 19.7071C11.6417 19.5196 11.5364 19.2652 11.5364 19V13H5.53638C5.27116 13 5.01681 12.8946 4.82927 12.7071C4.64173 12.5196 4.53638 12.2652 4.53638 12C4.53638 11.7348 4.64173 11.4804 4.82927 11.2929C5.01681 11.1054 5.27116 11 5.53638 11H11.5364V5C11.5364 4.73478 11.6417 4.48043 11.8293 4.29289C12.0168 4.10536 12.2712 4 12.5364 4C12.8016 4 13.0559 4.10536 13.2435 4.29289C13.431 4.48043 13.5364 4.73478 13.5364 5V11H19.5364C19.8016 11 20.0559 11.1054 20.2435 11.2929C20.431 11.4804 20.5364 11.7348 20.5364 12C20.5364 12.2652 20.431 12.5196 20.2435 12.7071C20.0559 12.8946 19.8016 13 19.5364 13Z" fill="#A9ABB0"/>
</svg>
