<svg width="60" height="60" viewBox="0 0 60 60" fill="none" xmlns="http://www.w3.org/2000/svg">
<rect width="60" height="60" rx="15" fill="#EF9400"/>
<rect x="8" y="8" width="44" height="44" rx="22" fill="white"/>
<path d="M22.8828 38H37.0507C38.4995 38 39.4026 36.4289 38.6782 35.1777L31.5943 22.9384C30.8699 21.6872 29.0636 21.6872 28.3392 22.9384L21.2553 35.1777C20.5309 36.4289 21.434 38 22.8828 38ZM29.9667 31.4147C29.4493 31.4147 29.026 30.9913 29.026 30.4739V28.5924C29.026 28.075 29.4493 27.6516 29.9667 27.6516C30.4842 27.6516 30.9075 28.075 30.9075 28.5924V30.4739C30.9075 30.9913 30.4842 31.4147 29.9667 31.4147ZM30.9075 35.1777H29.026V33.2962H30.9075V35.1777Z" fill="#EF9400"/>
</svg>
