<svg width="60" height="60" viewBox="0 0 60 60" fill="none" xmlns="http://www.w3.org/2000/svg">
<rect width="60" height="60" rx="15" fill="#EA4E2C"/>
<rect x="8" y="8" width="44" height="44" rx="22" fill="white"/>
<path d="M30 22C25.5813 22 22 25.5813 22 30C22 34.4187 25.5813 38 30 38C34.4187 38 38 34.4187 38 30C38 25.5813 34.4187 22 30 22ZM24 30C24 26.6844 26.6875 24 30 24C31.3156 24 32.5312 24.4281 33.5188 25.1469L25.1469 33.5188C24.4281 32.5312 24 31.3156 24 30ZM30 36C28.6844 36 27.4688 35.5719 26.4812 34.8531L34.8531 26.4812C35.5719 27.4719 36 28.6844 36 30C36 33.3156 33.3125 36 30 36Z" fill="#EA4E2C"/>
</svg>
