<svg width="60" height="60" viewBox="0 0 60 60" fill="none" xmlns="http://www.w3.org/2000/svg">
<rect width="60" height="60" rx="15" fill="#006CE5"/>
<rect x="8" y="8" width="44" height="44" rx="22" fill="white"/>
<path d="M29.6667 27.3333C29.313 27.3333 28.9739 27.4738 28.7239 27.7239C28.4738 27.9739 28.3333 28.313 28.3333 28.6667V36.6667C28.3333 37.0203 28.4738 37.3594 28.7239 37.6095C28.9739 37.8595 29.313 38 29.6667 38C30.0203 38 30.3594 37.8595 30.6095 37.6095C30.8595 37.3594 31 37.0203 31 36.6667V28.6667C31 28.313 30.8595 27.9739 30.6095 27.7239C30.3594 27.4738 30.0203 27.3333 29.6667 27.3333ZM29.6667 22C29.337 22 29.0148 22.0977 28.7407 22.2809C28.4666 22.464 28.253 22.7243 28.1269 23.0289C28.0007 23.3334 27.9677 23.6685 28.032 23.9918C28.0963 24.3151 28.2551 24.6121 28.4882 24.8452C28.7212 25.0783 29.0182 25.237 29.3415 25.3013C29.6648 25.3656 29.9999 25.3326 30.3045 25.2065C30.609 25.0803 30.8693 24.8667 31.0525 24.5926C31.2356 24.3185 31.3333 23.9963 31.3333 23.6667C31.3333 23.2246 31.1577 22.8007 30.8452 22.4882C30.5326 22.1756 30.1087 22 29.6667 22Z" fill="#006CE5"/>
</svg>
