<svg width="24" height="24" viewBox="0 0 24 24" fill="none" xmlns="http://www.w3.org/2000/svg">
<path fill-rule="evenodd" clip-rule="evenodd" d="M9.59199 3.20001C9.43472 3.34232 9.26945 3.47553 9.09699 3.59901C8.79899 3.79901 8.46399 3.93701 8.11199 4.00701C7.95899 4.03701 7.79899 4.05001 7.47999 4.07501C6.67899 4.13901 6.27799 4.17101 5.94399 4.28901C5.56209 4.42385 5.21523 4.64248 4.92884 4.92886C4.64246 5.21524 4.42383 5.56211 4.28899 5.94401C4.17099 6.27801 4.13899 6.67901 4.07499 7.48001C4.06409 7.69177 4.04138 7.90277 4.00699 8.11201C3.93699 8.46401 3.79899 8.79901 3.59899 9.09701C3.51199 9.22701 3.40799 9.34901 3.19999 9.59201C2.67899 10.204 2.41799 10.51 2.26499 10.83C1.91199 11.57 1.91199 12.43 2.26499 13.17C2.41799 13.49 2.67899 13.796 3.19999 14.408C3.40799 14.651 3.51199 14.773 3.59899 14.903C3.79899 15.201 3.93699 15.536 4.00699 15.888C4.03699 16.041 4.04999 16.201 4.07499 16.52C4.13899 17.321 4.17099 17.722 4.28899 18.056C4.42383 18.4379 4.64246 18.7848 4.92884 19.0712C5.21523 19.3575 5.56209 19.5762 5.94399 19.711C6.27799 19.829 6.67899 19.861 7.47999 19.925C7.79899 19.95 7.95899 19.963 8.11199 19.993C8.46399 20.063 8.79899 20.202 9.09699 20.401C9.22699 20.488 9.34899 20.592 9.59199 20.8C10.204 21.321 10.51 21.582 10.83 21.735C11.57 22.088 12.43 22.088 13.17 21.735C13.49 21.582 13.796 21.321 14.408 20.8C14.651 20.592 14.773 20.488 14.903 20.401C15.201 20.201 15.536 20.063 15.888 19.993C16.041 19.963 16.201 19.95 16.52 19.925C17.321 19.861 17.722 19.829 18.056 19.711C18.4379 19.5762 18.7848 19.3575 19.0711 19.0712C19.3575 18.7848 19.5762 18.4379 19.711 18.056C19.829 17.722 19.861 17.321 19.925 16.52C19.95 16.201 19.963 16.041 19.993 15.888C20.063 15.536 20.202 15.201 20.401 14.903C20.488 14.773 20.592 14.651 20.8 14.408C21.321 13.796 21.582 13.49 21.735 13.17C22.088 12.43 22.088 11.57 21.735 10.83C21.582 10.51 21.321 10.204 20.8 9.59201C20.6577 9.43473 20.5245 9.26947 20.401 9.09701C20.2012 8.79889 20.0625 8.4641 19.993 8.11201C19.9586 7.90277 19.9359 7.69177 19.925 7.48001C19.861 6.67901 19.829 6.27801 19.711 5.94401C19.5762 5.56211 19.3575 5.21524 19.0711 4.92886C18.7848 4.64248 18.4379 4.42385 18.056 4.28901C17.722 4.17101 17.321 4.13901 16.52 4.07501C16.3082 4.0641 16.0972 4.0414 15.888 4.00701C15.5359 3.9375 15.2011 3.79882 14.903 3.59901C14.7307 3.47527 14.5655 3.34207 14.408 3.20001C13.796 2.67901 13.49 2.41801 13.17 2.26501C12.8047 2.09039 12.4049 1.99976 12 1.99976C11.5951 1.99976 11.1953 2.09039 10.83 2.26501C10.51 2.41801 10.204 2.67901 9.59199 3.20001ZM16.373 9.86301C16.5143 9.70832 16.5906 9.50508 16.5858 9.2956C16.5811 9.08612 16.4958 8.88653 16.3476 8.73837C16.1995 8.5902 15.9999 8.50488 15.7904 8.50016C15.5809 8.49543 15.3777 8.57167 15.223 8.71301L10.373 13.563L8.77699 11.968C8.6223 11.8267 8.41907 11.7504 8.20959 11.7552C8.00011 11.7599 7.80051 11.8452 7.65235 11.9934C7.50419 12.1415 7.41887 12.3411 7.41414 12.5506C7.40942 12.7601 7.48566 12.9633 7.62699 13.118L9.79699 15.288C9.9496 15.4403 10.1564 15.5258 10.372 15.5258C10.5876 15.5258 10.7944 15.4403 10.947 15.288L16.374 9.86301H16.373Z" fill="#1DA1F2"/>
</svg>
