<svg width="300" height="300" viewBox="0 0 300 300" fill="none" xmlns="http://www.w3.org/2000/svg">
<path d="M24.6358 157.908C24.6358 157.908 26.0398 201.51 62.4358 230.574C98.8318 259.638 149.28 261.72 190.116 264.486C230.952 267.252 262.314 244.128 267.036 209.184C271.758 174.24 240.6 163.986 223.638 124.2C206.676 84.414 208.2 71.352 172.398 46.89C136.596 22.428 80.5378 37.446 51.1618 79.362C21.7858 121.278 24.6358 157.908 24.6358 157.908Z" fill="#92E3A9"/>
<path opacity="0.7" d="M24.6358 157.908C24.6358 157.908 26.0398 201.51 62.4358 230.574C98.8318 259.638 149.28 261.72 190.116 264.486C230.952 267.252 262.314 244.128 267.036 209.184C271.758 174.24 240.6 163.986 223.638 124.2C206.676 84.414 208.2 71.352 172.398 46.89C136.596 22.428 80.5378 37.446 51.1618 79.362C21.7858 121.278 24.6358 157.908 24.6358 157.908Z" fill="white"/>
<path d="M41.2018 228.318H35.6938" stroke="#263238" stroke-width="1.1133" stroke-miterlimit="10"/>
<path d="M264.306 228.318H49.9141" stroke="#263238" stroke-width="1.1133" stroke-miterlimit="10"/>
<path d="M183.642 251.346C193.713 251.346 201.876 249.1 201.876 246.33C201.876 243.56 193.713 241.314 183.642 241.314C173.572 241.314 165.408 243.56 165.408 246.33C165.408 249.1 173.572 251.346 183.642 251.346Z" fill="#263238"/>
<path d="M89.4002 257.724C70.4222 257.724 67.6202 254.982 67.3442 252.768C67.2816 252.307 67.327 251.838 67.4769 251.397C67.6269 250.957 67.8773 250.557 68.2082 250.23C73.3202 244.866 102.78 247.134 143.544 250.272C149.232 250.71 155.112 251.16 161.142 251.61C202.332 254.67 218.916 254.274 222.342 250.134C223.038 249.288 223.182 248.232 222.798 246.804C221.166 240.834 199.35 240.804 191.088 241.272C190.899 241.282 190.714 241.217 190.572 241.091C190.431 240.965 190.345 240.789 190.332 240.6C190.327 240.507 190.34 240.413 190.37 240.324C190.401 240.236 190.449 240.154 190.512 240.085C190.574 240.015 190.65 239.958 190.734 239.918C190.819 239.878 190.911 239.855 191.004 239.85C194.166 239.664 221.946 238.266 224.172 246.45C224.682 248.334 224.448 249.84 223.44 251.064C219.594 255.732 203.85 256.23 161.04 253.05C155.004 252.6 149.124 252.15 143.436 251.712C104.58 248.712 73.8842 246.354 69.2402 251.232C69.0566 251.406 68.9173 251.622 68.8338 251.861C68.7503 252.1 68.7251 252.355 68.7602 252.606C68.9342 254.022 72.3602 257.19 99.9602 256.086C115.398 255.486 130.908 253.788 131.064 253.77C131.245 253.763 131.422 253.824 131.559 253.942C131.696 254.06 131.783 254.226 131.803 254.405C131.823 254.585 131.773 254.765 131.665 254.91C131.557 255.055 131.398 255.154 131.22 255.186C131.064 255.186 115.506 256.89 100.02 257.508C96.0362 257.652 92.5082 257.724 89.4002 257.724Z" fill="white" stroke="#263238" stroke-width="1.1133" stroke-miterlimit="10"/>
<path d="M176.862 250.734C188.729 250.734 198.348 241.114 198.348 229.248C198.348 217.382 188.729 207.762 176.862 207.762C164.996 207.762 155.376 217.382 155.376 229.248C155.376 241.114 164.996 250.734 176.862 250.734Z" fill="white"/>
<mask id="mask0_1342_720" style="mask-type:luminance" maskUnits="userSpaceOnUse" x="155" y="207" width="44" height="44">
<path d="M176.862 250.734C188.729 250.734 198.348 241.114 198.348 229.248C198.348 217.382 188.729 207.762 176.862 207.762C164.996 207.762 155.376 217.382 155.376 229.248C155.376 241.114 164.996 250.734 176.862 250.734Z" fill="white"/>
</mask>
<g mask="url(#mask0_1342_720)">
<path d="M176.863 250.734C180.773 250.737 184.609 249.672 187.959 247.654C191.308 245.637 194.044 242.744 195.87 239.286C197.696 235.829 198.544 231.939 198.322 228.035C198.1 224.131 196.817 220.362 194.611 217.134C194.377 226.494 189.211 240.312 162.343 245.064C166.298 248.712 171.482 250.736 176.863 250.734Z" fill="#92E3A9"/>
<path opacity="0.3" d="M176.863 250.734C180.773 250.737 184.609 249.672 187.959 247.654C191.308 245.637 194.044 242.744 195.87 239.286C197.696 235.829 198.544 231.939 198.322 228.035C198.1 224.131 196.817 220.362 194.611 217.134C194.377 226.494 189.211 240.312 162.343 245.064C166.298 248.712 171.482 250.736 176.863 250.734Z" fill="white"/>
<path d="M187.435 237.672C183.603 233.944 178.95 231.168 173.85 229.566M187.435 237.672H188.574C191.103 235.165 193.281 232.327 195.048 229.236C184.986 218.604 175.2 219.69 175.2 219.69C175.2 219.69 185.016 218.604 195.078 229.248C195.63 228.258 196.092 227.328 196.47 226.47C192.283 220.602 185.07 216.6 181.2 216L180.3 215.784M187.435 237.672C178.597 237.546 171.876 236.178 166.854 234.348C167.178 220.776 172.021 211.734 174.553 207.906C175.359 207.812 176.17 207.764 176.982 207.762C177.72 207.762 178.44 207.804 179.16 207.87M180.3 215.784C178.913 215.532 177.494 215.512 176.1 215.724M180.3 215.784L182.862 208.584C181.652 208.238 180.413 207.999 179.16 207.87M179.16 207.87C177.498 210.552 173.221 219.12 173.221 236.118M192.288 233.298C183.732 224.958 174.289 224.52 174.289 224.52" stroke="#263238" stroke-width="1.1133" stroke-linecap="round" stroke-linejoin="round"/>
<path d="M166.831 234.384C167.155 220.812 171.997 211.77 174.529 207.942C172.547 208.164 170.607 208.661 168.763 209.418C164.215 216.089 161.646 223.91 161.353 231.978C163.114 232.919 164.946 233.723 166.831 234.384Z" stroke="#263238" stroke-width="1.1133" stroke-linecap="round" stroke-linejoin="round"/>
<path d="M168.763 209.4C165.052 210.93 161.843 213.466 159.498 216.723C157.153 219.98 155.765 223.828 155.491 227.832C157.257 229.456 159.228 230.844 161.353 231.96C161.647 223.892 164.215 216.071 168.763 209.4Z" stroke="#263238" stroke-width="1.1133" stroke-linecap="round" stroke-linejoin="round"/>
<path d="M196.441 226.47C196.908 225.437 197.309 224.375 197.641 223.29C196.744 220.23 195.18 217.406 193.063 215.022L191.401 220.566L193.033 215.022C191.708 213.535 190.183 212.239 188.503 211.17L186.673 218.016L188.515 211.2C186.758 210.076 184.846 209.217 182.839 208.65L180.277 215.85C184.201 216.414 190.267 218.724 196.441 226.47Z" stroke="#263238" stroke-width="1.1133" stroke-linecap="round" stroke-linejoin="round"/>
<path d="M178.051 245.838C180.55 244.326 182.935 242.631 185.185 240.768C186.415 239.736 188.671 237.69 188.743 237.69C188.671 237.69 192.979 232.83 194.407 230.292C194.407 230.328 195.043 229.284 195.007 229.248C194.971 229.212 195.523 228.342 195.487 228.306C195.836 227.718 196.141 227.104 196.399 226.47C196.866 225.437 197.267 224.375 197.599 223.29C198.172 225.251 198.462 227.283 198.463 229.326C198.463 229.662 198.463 229.95 198.463 230.262C189.391 243 182.401 248.46 178.003 250.854C177.649 250.854 177.289 250.854 176.923 250.854C174.722 250.854 172.535 250.518 170.437 249.858C173.05 248.666 175.592 247.324 178.051 245.838ZM178.051 245.838H178.207" stroke="#263238" stroke-width="1.1133" stroke-linecap="round" stroke-linejoin="round"/>
<path d="M198.463 230.262C189.391 243 182.401 248.46 178.039 250.8C183.388 250.531 188.444 248.277 192.221 244.479C195.998 240.682 198.223 235.613 198.463 230.262Z" stroke="#263238" stroke-width="1.1133" stroke-linecap="round" stroke-linejoin="round"/>
<path d="M160.135 242.742C162.797 246.089 166.396 248.566 170.473 249.858C173.086 248.666 175.628 247.324 178.087 245.838C172.963 246.786 164.947 244.434 160.135 242.742Z" stroke="#263238" stroke-width="1.1133" stroke-linecap="round" stroke-linejoin="round"/>
<path d="M178.087 245.838C180.586 244.326 182.971 242.631 185.221 240.768C169.747 242.352 160.201 237.558 156.145 234.834C156.91 237.719 158.269 240.412 160.135 242.742C164.947 244.434 172.963 246.786 178.087 245.838Z" stroke="#263238" stroke-width="1.1133" stroke-linecap="round" stroke-linejoin="round"/>
<path d="M187.435 237.684H188.575C187.561 238.704 186.451 239.736 185.221 240.768C169.747 242.352 160.201 237.558 156.145 234.846C155.671 233.048 155.431 231.197 155.431 229.338C155.431 228.84 155.455 228.354 155.491 227.862C156.799 229.092 159.457 231.84 166.831 234.396C171.877 236.19 178.597 237.558 187.435 237.684ZM187.435 237.684C187.519 237.762 187.603 237.84 187.681 237.924" stroke="#263238" stroke-width="1.1133" stroke-linecap="round" stroke-linejoin="round"/>
</g>
<path d="M176.862 250.734C188.729 250.734 198.348 241.114 198.348 229.248C198.348 217.382 188.729 207.762 176.862 207.762C164.996 207.762 155.376 217.382 155.376 229.248C155.376 241.114 164.996 250.734 176.862 250.734Z" stroke="#263238" stroke-width="1.1133" stroke-linecap="round" stroke-linejoin="round"/>
<path d="M216.438 192.528C216.438 192.528 214.968 187.758 210.684 186.042C207.684 184.842 204.282 185.166 201.192 185.7C195.444 186.702 190.428 188.988 184.992 190.938C184.992 190.938 187.32 190.08 196.866 194.736C200.382 196.446 204.402 197.778 208.422 197.688C211.644 197.616 216.6 196.692 216.438 192.528Z" fill="#92E3A9"/>
<path d="M216.954 178.506C216.954 178.506 216.954 173.508 213.354 170.634C210.846 168.63 207.474 167.94 204.354 167.562C198.558 166.86 193.098 167.598 187.314 167.892C187.314 167.892 189.792 167.748 197.586 174.96C200.46 177.612 203.928 180.048 207.786 181.122C210.894 181.986 215.898 182.538 216.954 178.506Z" fill="#92E3A9"/>
<path d="M226.8 197.052C226.8 197.052 222.906 193.926 222.894 189.312C222.894 186.102 224.436 183.036 226.074 180.366C229.122 175.386 233.094 171.57 236.922 167.22C236.922 167.22 235.266 169.068 236.07 179.658C236.37 183.558 236.118 187.788 234.552 191.49C233.322 194.466 230.64 198.732 226.8 197.052Z" fill="#92E3A9"/>
<path d="M240.6 204.72C240.6 204.72 240.048 199.758 243.3 196.482C245.556 194.208 248.826 193.128 251.868 192.396C257.544 191.028 263.052 191.13 268.83 190.752C268.83 190.752 266.358 190.89 259.446 198.954C256.902 201.954 253.74 204.744 250.014 206.262C247.044 207.48 242.136 208.602 240.6 204.72Z" fill="#92E3A9"/>
<path d="M239.718 187.026C239.718 187.026 234.768 186.348 232.392 182.394C230.736 179.646 230.49 176.214 230.52 173.082C230.58 167.25 232.032 161.928 233.082 156.234C233.082 156.234 232.608 158.67 238.74 167.34C240.996 170.538 242.94 174.294 243.54 178.278C243.966 181.476 243.852 186.51 239.718 187.026Z" fill="#92E3A9"/>
<path d="M253.962 178.14C253.962 178.14 257.52 181.644 262.104 181.14C265.29 180.774 268.158 178.872 270.618 176.94C275.202 173.34 278.532 168.936 282.402 164.634C282.402 164.634 280.764 166.488 270.15 166.926C266.244 167.088 262.074 167.826 258.576 169.818C255.768 171.39 251.85 174.552 253.962 178.14Z" fill="#92E3A9"/>
<path d="M249.84 174.678C249.84 174.678 254.808 175.176 258.048 171.894C260.304 169.608 261.348 166.332 262.05 163.278C263.358 157.596 263.202 152.082 263.514 146.304C263.514 146.304 263.406 148.776 255.408 155.772C252.468 158.346 249.678 161.538 248.208 165.276C247.014 168.282 245.94 173.202 249.84 174.678Z" fill="#92E3A9"/>
<path d="M232.098 223.044L223.518 201.93L213.624 177.516" stroke="#263238" stroke-width="1.1133" stroke-linecap="round" stroke-linejoin="round"/>
<path d="M234.078 219.414L242.652 190.056L251.892 171.912" stroke="#263238" stroke-width="1.1133" stroke-linecap="round" stroke-linejoin="round"/>
<path d="M237.372 207.87L245.952 202.92" stroke="#263238" stroke-width="1.1133" stroke-linecap="round" stroke-linejoin="round"/>
<path d="M242.652 190.056L238.362 180.486" stroke="#263238" stroke-width="1.1133" stroke-linecap="round" stroke-linejoin="round"/>
<path d="M248.022 180.534L258.486 175.866" stroke="#263238" stroke-width="1.1133" stroke-linecap="round" stroke-linejoin="round"/>
<path d="M225.168 205.89L228.798 191.376" stroke="#263238" stroke-width="1.1133" stroke-linecap="round" stroke-linejoin="round"/>
<path d="M220.356 194.856L211.974 190.386" stroke="#263238" stroke-width="1.1133" stroke-linecap="round" stroke-linejoin="round"/>
<path d="M236.496 233.598H229.344C228.175 233.598 227.043 233.189 226.142 232.443C225.242 231.697 224.63 230.661 224.412 229.512L221.868 216.114H243.972L241.434 229.512C241.215 230.661 240.602 231.698 239.701 232.444C238.799 233.19 237.666 233.598 236.496 233.598Z" fill="#263238" stroke="#263238" stroke-width="1.1133" stroke-linecap="round" stroke-linejoin="round"/>
<path d="M138.69 205.368C125.334 205.368 117.306 193.518 114.456 183.096L114.36 182.73C114.208 182.225 114.16 181.694 114.218 181.169C114.276 180.645 114.439 180.138 114.697 179.678C114.956 179.218 115.305 178.815 115.723 178.492C116.141 178.17 116.619 177.936 117.13 177.803C117.641 177.67 118.173 177.642 118.695 177.719C119.217 177.797 119.718 177.979 120.168 178.255C120.618 178.531 121.007 178.894 121.314 179.324C121.62 179.754 121.836 180.241 121.95 180.756L122.022 181.026C124.188 188.958 130.086 198.024 139.548 197.502C141.327 197.44 143.073 197.005 144.674 196.225C146.274 195.444 147.692 194.336 148.836 192.972C154.026 187.02 156.348 174.078 155.832 167.55C155.783 167.131 155.819 166.707 155.938 166.302C156.057 165.897 156.256 165.521 156.524 165.195C156.791 164.869 157.122 164.6 157.496 164.405C157.87 164.21 158.279 164.092 158.7 164.059C159.12 164.025 159.543 164.077 159.943 164.21C160.343 164.344 160.712 164.557 161.028 164.836C161.344 165.116 161.6 165.456 161.781 165.837C161.963 166.217 162.066 166.631 162.084 167.052C162.684 174.318 161.892 189.936 154.746 198.126C152.917 200.28 150.662 202.031 148.122 203.27C145.583 204.509 142.815 205.209 139.992 205.326C139.554 205.356 139.116 205.368 138.69 205.368Z" fill="white"/>
<mask id="mask1_1342_720" style="mask-type:luminance" maskUnits="userSpaceOnUse" x="114" y="164" width="49" height="42">
<path d="M138.69 205.368C125.334 205.368 117.306 193.518 114.456 183.096L114.36 182.73C114.208 182.225 114.16 181.694 114.218 181.169C114.276 180.645 114.439 180.138 114.697 179.678C114.956 179.218 115.305 178.815 115.723 178.492C116.141 178.17 116.619 177.936 117.13 177.803C117.641 177.67 118.173 177.642 118.695 177.719C119.217 177.797 119.718 177.979 120.168 178.255C120.618 178.531 121.007 178.894 121.314 179.324C121.62 179.754 121.836 180.241 121.95 180.756L122.022 181.026C124.188 188.958 130.086 198.024 139.548 197.502C141.327 197.44 143.073 197.005 144.674 196.225C146.274 195.444 147.692 194.336 148.836 192.972C154.026 187.02 156.348 174.078 155.832 167.55C155.783 167.131 155.819 166.707 155.938 166.302C156.057 165.897 156.256 165.521 156.524 165.195C156.791 164.869 157.122 164.6 157.496 164.405C157.87 164.21 158.279 164.092 158.7 164.059C159.12 164.025 159.543 164.077 159.943 164.21C160.343 164.344 160.712 164.557 161.028 164.836C161.344 165.116 161.6 165.456 161.781 165.837C161.963 166.217 162.066 166.631 162.084 167.052C162.684 174.318 161.892 189.936 154.746 198.126C152.917 200.28 150.662 202.031 148.122 203.27C145.583 204.509 142.815 205.209 139.992 205.326C139.554 205.356 139.116 205.368 138.69 205.368Z" fill="white"/>
</mask>
<g mask="url(#mask1_1342_720)">
<path d="M158.706 164.172C157.877 164.239 157.109 164.633 156.57 165.266C156.031 165.9 155.766 166.721 155.832 167.55C156.084 170.736 155.658 175.446 154.554 180.15C156.131 180.083 157.707 180.286 159.216 180.75C158.859 185.264 157.274 189.594 154.632 193.272C148.806 201.366 140.07 203.952 133.272 202.98C130.23 202.548 126.744 200.952 123.81 199.314C127.791 203.196 133.129 205.373 138.69 205.38C139.116 205.38 139.554 205.38 139.992 205.344C142.815 205.227 145.583 204.527 148.123 203.288C150.662 202.049 152.917 200.298 154.746 198.144C161.892 189.954 162.66 174.336 162.084 167.07C162.055 166.657 161.943 166.254 161.757 165.885C161.571 165.515 161.313 165.186 160.999 164.917C160.685 164.647 160.321 164.443 159.927 164.315C159.534 164.187 159.119 164.138 158.706 164.172Z" fill="#92E3A9"/>
<path opacity="0.5" d="M158.706 164.172C157.877 164.239 157.109 164.633 156.57 165.266C156.031 165.9 155.766 166.721 155.832 167.55C156.084 170.736 155.658 175.446 154.554 180.15C156.131 180.083 157.707 180.286 159.216 180.75C158.859 185.264 157.274 189.594 154.632 193.272C148.806 201.366 140.07 203.952 133.272 202.98C130.23 202.548 126.744 200.952 123.81 199.314C127.791 203.196 133.129 205.373 138.69 205.38C139.116 205.38 139.554 205.38 139.992 205.344C142.815 205.227 145.583 204.527 148.123 203.288C150.662 202.049 152.917 200.298 154.746 198.144C161.892 189.954 162.66 174.336 162.084 167.07C162.055 166.657 161.943 166.254 161.757 165.885C161.571 165.515 161.313 165.186 160.999 164.917C160.685 164.647 160.321 164.443 159.927 164.315C159.534 164.187 159.119 164.138 158.706 164.172Z" fill="white"/>
</g>
<path d="M138.69 205.368C125.334 205.368 117.306 193.518 114.456 183.096L114.36 182.73C114.208 182.225 114.16 181.694 114.218 181.169C114.276 180.645 114.439 180.138 114.697 179.678C114.956 179.218 115.305 178.815 115.723 178.492C116.141 178.17 116.619 177.936 117.13 177.803C117.641 177.67 118.173 177.642 118.695 177.719C119.217 177.797 119.718 177.979 120.168 178.255C120.618 178.531 121.007 178.894 121.314 179.324C121.62 179.754 121.836 180.241 121.95 180.756L122.022 181.026C124.188 188.958 130.086 198.024 139.548 197.502C141.327 197.44 143.073 197.005 144.674 196.225C146.274 195.444 147.692 194.336 148.836 192.972C154.026 187.02 156.348 174.078 155.832 167.55C155.783 167.131 155.819 166.707 155.938 166.302C156.057 165.897 156.256 165.521 156.524 165.195C156.791 164.869 157.122 164.6 157.496 164.405C157.87 164.21 158.279 164.092 158.7 164.059C159.12 164.025 159.543 164.077 159.943 164.21C160.343 164.344 160.712 164.557 161.028 164.836C161.344 165.116 161.6 165.456 161.781 165.837C161.963 166.217 162.066 166.631 162.084 167.052C162.684 174.318 161.892 189.936 154.746 198.126C152.917 200.28 150.662 202.031 148.122 203.27C145.583 204.509 142.815 205.209 139.992 205.326C139.554 205.356 139.116 205.368 138.69 205.368Z" stroke="#263238" stroke-width="1.1133" stroke-linecap="round" stroke-linejoin="round"/>
<path d="M130.986 197.25C131.304 195.78 127.788 198.078 124.842 200.22C125.932 201.141 127.105 201.958 128.346 202.662C129.396 200.952 130.68 198.666 130.986 197.25Z" fill="#92E3A9" stroke="#263238" stroke-width="1.1133" stroke-linecap="round" stroke-linejoin="round"/>
<path d="M138.69 205.368C139.116 205.368 139.554 205.368 139.992 205.332C141.267 205.261 142.533 205.082 143.778 204.798C142.122 202.638 139.842 199.782 139.188 199.566C138.438 199.314 136.992 202.992 136.188 205.224C137.018 205.321 137.854 205.369 138.69 205.368Z" fill="#92E3A9" stroke="#263238" stroke-width="1.1133" stroke-linecap="round" stroke-linejoin="round"/>
<path d="M122.022 181.026L121.95 180.756C121.836 180.241 121.62 179.754 121.314 179.324C121.007 178.894 120.618 178.531 120.168 178.255C119.718 177.979 119.217 177.797 118.695 177.719C118.173 177.642 117.641 177.67 117.13 177.803C116.619 177.936 116.141 178.17 115.723 178.492C115.305 178.815 114.956 179.218 114.697 179.678C114.439 180.138 114.276 180.645 114.218 181.169C114.16 181.694 114.208 182.225 114.36 182.73L114.456 183.096C115.456 186.756 116.993 190.248 119.016 193.458L126.162 190.056C124.288 187.298 122.889 184.246 122.022 181.026Z" fill="#92E3A9" stroke="#263238" stroke-width="1.1133" stroke-linecap="round" stroke-linejoin="round"/>
<path d="M154.746 198.126C155.295 197.49 155.804 196.821 156.27 196.122C154.002 195.348 150.606 194.28 149.346 194.394C147.852 194.532 149.88 199.332 150.924 201.594C152.329 200.592 153.612 199.428 154.746 198.126Z" fill="#92E3A9" stroke="#263238" stroke-width="1.1133" stroke-linecap="round" stroke-linejoin="round"/>
<path d="M154.872 185.304C154.632 185.784 157.566 187.92 159.546 189.294C160.174 187.425 160.679 185.517 161.058 183.582C158.658 184.062 155.106 184.836 154.872 185.304Z" fill="#92E3A9" stroke="#263238" stroke-width="1.1133" stroke-linecap="round" stroke-linejoin="round"/>
<path d="M162.03 176.43C162.162 174.72 162.228 173.088 162.234 171.588C160.17 172.722 157.722 174.294 157.722 175.326C157.722 176.358 160.014 176.484 162.03 176.43Z" fill="#92E3A9" stroke="#263238" stroke-width="1.1133" stroke-linecap="round" stroke-linejoin="round"/>
<path d="M129.726 130.008C129.726 130.008 123.9 146.88 127.038 160.008C127.967 163.85 129.772 167.425 132.31 170.454C134.848 173.484 138.052 175.886 141.672 177.474C141.672 177.474 133.158 180.474 135.072 185.088C136.986 189.702 144.324 186.732 146.718 185.238C149.112 183.744 152.118 179.268 152.538 176.28C152.805 174.753 152.905 173.202 152.838 171.654C152.838 171.654 162.54 170.61 169.11 165.234C169.11 165.234 174.936 169.86 179.118 168.966C183.3 168.072 189.27 160.602 188.67 153.888C188.07 147.174 184.2 147.18 181.836 148.2C180.609 148.664 179.49 149.375 178.548 150.288C178.548 150.288 181.98 146.088 178.548 140.286C177.535 138.584 176.148 137.135 174.492 136.049C172.836 134.962 170.954 134.267 168.99 134.016C168.99 134.016 167.19 124.458 161.826 120.876C156.462 117.294 137.34 113.586 129.726 130.008Z" fill="white"/>
<mask id="mask2_1342_720" style="mask-type:luminance" maskUnits="userSpaceOnUse" x="126" y="117" width="63" height="71">
<path d="M129.726 130.008C129.726 130.008 123.9 146.88 127.038 160.008C127.967 163.85 129.772 167.425 132.31 170.454C134.848 173.484 138.052 175.886 141.672 177.474C141.672 177.474 133.158 180.474 135.072 185.088C136.986 189.702 144.324 186.732 146.718 185.238C149.112 183.744 152.118 179.268 152.538 176.28C152.805 174.753 152.905 173.202 152.838 171.654C152.838 171.654 162.54 170.61 169.11 165.234C169.11 165.234 174.936 169.86 179.118 168.966C183.3 168.072 189.27 160.602 188.67 153.888C188.07 147.174 184.2 147.18 181.836 148.2C180.609 148.664 179.49 149.375 178.548 150.288C178.548 150.288 181.98 146.088 178.548 140.286C177.535 138.584 176.148 137.135 174.492 136.049C172.836 134.962 170.954 134.267 168.99 134.016C168.99 134.016 167.19 124.458 161.826 120.876C156.462 117.294 137.34 113.586 129.726 130.008Z" fill="white"/>
</mask>
<g mask="url(#mask2_1342_720)">
<path d="M174.084 135.81C171.314 140.43 167.481 144.323 162.904 147.163C158.327 150.004 153.138 151.711 147.768 152.142C135.888 153.186 129.228 150.846 126.168 149.22C126.539 142.692 127.749 136.239 129.768 130.02C137.382 113.598 156.492 117.33 161.868 120.912C167.244 124.494 169.032 134.052 169.032 134.052C170.821 134.276 172.542 134.876 174.084 135.81ZM181.836 148.2C180.609 148.664 179.49 149.375 178.548 150.288C179.275 149.286 179.754 148.127 179.946 146.904C171.876 150.924 172.506 159.504 171.504 159.504C170.268 159.504 169.656 155.19 169.656 155.19C169.656 155.19 168.114 161.352 158.856 165.672C149.598 169.992 139.128 166.596 139.128 166.596C139.128 166.596 141.288 171.528 135.738 170.91C134.18 170.761 132.687 170.216 131.4 169.326C134.061 172.874 137.596 175.673 141.66 177.45C141.66 177.45 133.146 180.45 135.06 185.064C136.974 189.678 144.318 186.708 146.706 185.214C149.094 183.72 152.106 179.244 152.526 176.256C152.793 174.729 152.893 173.178 152.826 171.63C152.826 171.63 162.528 170.586 169.098 165.21C169.098 165.21 174.924 169.836 179.106 168.942C183.288 168.048 189.258 160.578 188.658 153.864C188.058 147.15 184.2 147.18 181.836 148.2Z" fill="#92E3A9"/>
<path opacity="0.5" d="M174.084 135.81C171.314 140.43 167.481 144.323 162.904 147.163C158.327 150.004 153.138 151.711 147.768 152.142C135.888 153.186 129.228 150.846 126.168 149.22C126.539 142.692 127.749 136.239 129.768 130.02C137.382 113.598 156.492 117.33 161.868 120.912C167.244 124.494 169.032 134.052 169.032 134.052C170.821 134.276 172.542 134.876 174.084 135.81ZM181.836 148.2C180.609 148.664 179.49 149.375 178.548 150.288C179.275 149.286 179.754 148.127 179.946 146.904C171.876 150.924 172.506 159.504 171.504 159.504C170.268 159.504 169.656 155.19 169.656 155.19C169.656 155.19 168.114 161.352 158.856 165.672C149.598 169.992 139.128 166.596 139.128 166.596C139.128 166.596 141.288 171.528 135.738 170.91C134.18 170.761 132.687 170.216 131.4 169.326C134.061 172.874 137.596 175.673 141.66 177.45C141.66 177.45 133.146 180.45 135.06 185.064C136.974 189.678 144.318 186.708 146.706 185.214C149.094 183.72 152.106 179.244 152.526 176.256C152.793 174.729 152.893 173.178 152.826 171.63C152.826 171.63 162.528 170.586 169.098 165.21C169.098 165.21 174.924 169.836 179.106 168.942C183.288 168.048 189.258 160.578 188.658 153.864C188.058 147.15 184.2 147.18 181.836 148.2Z" fill="white"/>
<path d="M152.868 171.666C149.648 171.752 146.451 171.098 143.523 169.755C140.595 168.412 138.014 166.416 135.978 163.92" stroke="#263238" stroke-width="1.1133" stroke-linecap="round" stroke-linejoin="round"/>
</g>
<path d="M129.726 130.008C129.726 130.008 123.9 146.88 127.038 160.008C127.967 163.85 129.772 167.425 132.31 170.454C134.848 173.484 138.052 175.886 141.672 177.474C141.672 177.474 133.158 180.474 135.072 185.088C136.986 189.702 144.324 186.732 146.718 185.238C149.112 183.744 152.118 179.268 152.538 176.28C152.805 174.753 152.905 173.202 152.838 171.654C152.838 171.654 162.54 170.61 169.11 165.234C169.11 165.234 174.936 169.86 179.118 168.966C183.3 168.072 189.27 160.602 188.67 153.888C188.07 147.174 184.2 147.18 181.836 148.2C180.609 148.664 179.49 149.375 178.548 150.288C178.548 150.288 181.98 146.088 178.548 140.286C177.535 138.584 176.148 137.135 174.492 136.049C172.836 134.962 170.954 134.267 168.99 134.016C168.99 134.016 167.19 124.458 161.826 120.876C156.462 117.294 137.34 113.586 129.726 130.008Z" stroke="#263238" stroke-width="1.1133" stroke-linecap="round" stroke-linejoin="round"/>
<path d="M178.548 150.312C178.548 150.312 175.416 152.406 173.922 158.826" stroke="#263238" stroke-width="1.1133" stroke-linecap="round" stroke-linejoin="round"/>
<path d="M184.302 153.06C183.936 154.152 182.934 154.806 182.07 154.512C181.206 154.218 180.81 153.096 181.176 152.004C181.542 150.912 182.544 150.258 183.408 150.552C184.272 150.846 184.674 151.968 184.302 153.06Z" fill="white" stroke="#263238" stroke-width="1.1133" stroke-linecap="round" stroke-linejoin="round"/>
<path d="M187.392 155.004C187.026 156.096 186.024 156.75 185.16 156.456C184.296 156.162 183.894 155.04 184.266 153.948C184.638 152.856 185.634 152.202 186.498 152.496C187.362 152.79 187.764 153.912 187.392 155.004Z" fill="white" stroke="#263238" stroke-width="1.1133" stroke-linecap="round" stroke-linejoin="round"/>
<path d="M188.052 157.914C187.932 158.115 187.758 158.278 187.549 158.383C187.341 158.489 187.106 158.533 186.874 158.511C186.641 158.489 186.419 158.402 186.234 158.258C186.049 158.115 185.909 157.923 185.829 157.703C185.749 157.483 185.733 157.245 185.783 157.017C185.833 156.788 185.947 156.579 186.111 156.412C186.275 156.246 186.483 156.13 186.711 156.077C186.939 156.024 187.177 156.037 187.398 156.114C187.717 156.273 187.962 156.549 188.084 156.884C188.205 157.218 188.194 157.587 188.052 157.914Z" fill="white" stroke="#263238" stroke-width="1.1133" stroke-linecap="round" stroke-linejoin="round"/>
<path d="M184.11 161.91C183.03 163.86 180.87 164.724 179.28 163.842C177.69 162.96 177.282 160.674 178.362 158.724C179.442 156.774 181.602 155.91 183.192 156.792C184.782 157.674 185.19 159.96 184.11 161.91Z" fill="white" stroke="#263238" stroke-width="1.1133" stroke-linecap="round" stroke-linejoin="round"/>
<path d="M141.672 177.486C143.683 178.422 145.97 178.582 148.092 177.936" stroke="#263238" stroke-width="1.1133" stroke-linecap="round" stroke-linejoin="round"/>
<path d="M135.102 185.1C135.102 185.1 135.702 182.562 139.428 180.774" stroke="#263238" stroke-width="1.1133" stroke-linecap="round" stroke-linejoin="round"/>
<path d="M138.834 187.344C138.834 187.344 140.328 183.744 142.866 182.118" stroke="#263238" stroke-width="1.1133" stroke-linecap="round" stroke-linejoin="round"/>
<path d="M79.956 146.04C79.3213 145.534 78.8154 144.884 78.4796 144.145C78.1438 143.405 77.9877 142.597 78.024 141.786V127.56H41.328C40.4316 127.594 39.5385 127.433 38.71 127.089C37.8815 126.745 37.1372 126.226 36.528 125.568C35.3277 124.298 34.6692 122.611 34.692 120.864C34.6871 119.444 35.1048 118.055 35.892 116.874L71.04 61.638C73.68 57.562 77.188 55.524 81.564 55.524C83.9166 55.4441 86.2138 56.249 88.002 57.78C89.718 59.28 90.576 61.51 90.576 64.47V118.164H99.912C100.557 118.125 101.202 118.229 101.803 118.467C102.403 118.706 102.944 119.073 103.386 119.544C104.175 120.469 104.609 121.646 104.609 122.862C104.609 124.078 104.175 125.255 103.386 126.18C102.944 126.651 102.403 127.018 101.803 127.257C101.202 127.495 100.557 127.599 99.912 127.56H90.51V141.786C90.5489 142.591 90.4007 143.394 90.0769 144.132C89.7531 144.87 89.2626 145.523 88.644 146.04C87.4362 147.053 85.906 147.6 84.33 147.582C82.7366 147.595 81.1892 147.049 79.956 146.04ZM78 118.164V68.724L47.226 118.164H78Z" fill="#263238"/>
<path d="M130.878 146.328C127.281 144.758 124.096 142.378 121.572 139.374C119.036 136.2 117.056 132.619 115.716 128.784C114.197 124.641 113.128 120.346 112.53 115.974C111.905 111.214 111.605 106.417 111.63 101.616C111.63 69.988 122.43 54.174 144.03 54.174C165.63 54.174 176.404 69.988 176.352 101.616C176.373 106.394 176.083 111.168 175.482 115.908C174.903 120.281 173.845 124.577 172.326 128.718C170.985 132.553 169.005 136.134 166.47 139.308C163.942 142.316 160.759 144.706 157.164 146.292C153.031 148.119 148.548 149.02 144.03 148.932C139.509 149.023 135.023 148.134 130.878 146.328ZM150.414 137.25C152.221 136.479 153.862 135.364 155.244 133.968C156.644 132.478 157.794 130.772 158.652 128.916C159.598 126.95 160.363 124.901 160.938 122.796C161.543 120.502 161.984 118.168 162.258 115.812C162.582 113.212 162.798 110.83 162.906 108.666C163.014 106.502 163.066 104.152 163.062 101.616C163.062 98.956 163.01 96.5 162.906 94.248C162.802 91.996 162.576 89.58 162.228 87C161.929 84.6453 161.478 82.3124 160.878 80.016C160.31 77.9319 159.545 75.9067 158.592 73.968C157.728 72.1414 156.575 70.4659 155.178 69.006C153.804 67.6377 152.172 66.5549 150.378 65.82C146.275 64.2361 141.73 64.2361 137.628 65.82C135.846 66.546 134.227 67.6188 132.864 68.976C131.477 70.4296 130.327 72.0918 129.456 73.902C128.495 75.8232 127.739 77.8404 127.2 79.92C126.614 82.2302 126.173 84.5748 125.88 86.94C125.532 89.556 125.306 91.992 125.202 94.248C125.098 96.504 125.044 98.96 125.04 101.616C125.04 104.148 125.094 106.508 125.202 108.696C125.31 110.884 125.524 113.284 125.844 115.896C126.121 118.252 126.562 120.586 127.164 122.88C127.73 124.985 128.487 127.033 129.426 129C130.275 130.845 131.415 132.54 132.804 134.022C134.176 135.409 135.807 136.514 137.604 137.274C141.71 138.946 146.308 138.946 150.414 137.274V137.25Z" fill="#263238"/>
<path d="M231.948 146.04C231.313 145.534 230.808 144.884 230.472 144.145C230.136 143.405 229.98 142.597 230.016 141.786V127.56H193.32C192.424 127.594 191.531 127.433 190.702 127.089C189.874 126.745 189.129 126.226 188.52 125.568C187.32 124.298 186.661 122.611 186.684 120.864C186.679 119.444 187.097 118.055 187.884 116.874L223.032 61.638C225.648 57.562 229.146 55.524 233.526 55.524C235.891 55.4349 238.203 56.2405 240 57.78C241.716 59.28 242.574 61.51 242.574 64.47V118.164H251.91C252.555 118.125 253.2 118.229 253.801 118.467C254.401 118.706 254.942 119.073 255.384 119.544C256.174 120.469 256.607 121.646 256.607 122.862C256.607 124.078 256.174 125.255 255.384 126.18C254.942 126.651 254.401 127.018 253.801 127.257C253.2 127.495 252.555 127.599 251.91 127.56H242.502V141.786C242.541 142.591 242.393 143.394 242.069 144.132C241.745 144.87 241.255 145.523 240.636 146.04C239.428 147.053 237.898 147.6 236.322 147.582C234.729 147.595 233.181 147.049 231.948 146.04ZM230.016 118.164V68.724L199.242 118.164H230.016Z" fill="#263238"/>
<path d="M117.63 121.5C117.63 121.5 111.36 130.308 110.466 139.266C109.572 148.224 110.616 154.194 113.304 156.438C115.992 158.682 118.674 157.782 120.168 155.688C121.662 153.594 119.274 146.28 119.274 146.28C119.274 146.28 121.812 139.266 125.694 134.34C129.576 129.414 130.32 128.664 130.32 128.664C130.32 128.664 123.6 121.05 117.63 121.5Z" fill="white"/>
<mask id="mask3_1342_720" style="mask-type:luminance" maskUnits="userSpaceOnUse" x="110" y="121" width="21" height="37">
<path d="M117.63 121.5C117.63 121.5 111.36 130.308 110.466 139.266C109.572 148.224 110.616 154.194 113.304 156.438C115.992 158.682 118.674 157.782 120.168 155.688C121.662 153.594 119.274 146.28 119.274 146.28C119.274 146.28 121.812 139.266 125.694 134.34C129.576 129.414 130.32 128.664 130.32 128.664C130.32 128.664 123.6 121.05 117.63 121.5Z" fill="white"/>
</mask>
<g mask="url(#mask3_1342_720)">
<path d="M117.63 121.5C116.262 123.522 115.048 125.644 114 127.848C117 129.048 121.65 131.508 124.602 135.864C124.962 135.342 125.334 134.826 125.718 134.34C129.6 129.414 130.344 128.664 130.344 128.664C130.344 128.664 123.6 121.05 117.63 121.5Z" fill="#92E3A9"/>
<path opacity="0.5" d="M117.63 121.5C116.262 123.522 115.048 125.644 114 127.848C117 129.048 121.65 131.508 124.602 135.864C124.962 135.342 125.334 134.826 125.718 134.34C129.6 129.414 130.344 128.664 130.344 128.664C130.344 128.664 123.6 121.05 117.63 121.5Z" fill="white"/>
</g>
<path d="M117.63 121.5C117.63 121.5 111.36 130.308 110.466 139.266C109.572 148.224 110.616 154.194 113.304 156.438C115.992 158.682 118.674 157.782 120.168 155.688C121.662 153.594 119.274 146.28 119.274 146.28C119.274 146.28 121.812 139.266 125.694 134.34C129.576 129.414 130.32 128.664 130.32 128.664C130.32 128.664 123.6 121.05 117.63 121.5Z" stroke="#263238" stroke-width="1.1133" stroke-linecap="round" stroke-linejoin="round"/>
<path d="M113.304 156.438C112.571 154.48 112.215 152.402 112.254 150.312" stroke="#263238" stroke-width="1.1133" stroke-linecap="round" stroke-linejoin="round"/>
<path d="M117.33 157.332C117.33 157.332 115.842 154.794 115.692 150.462" stroke="#263238" stroke-width="1.1133" stroke-linecap="round" stroke-linejoin="round"/>
<path d="M119.574 137.472C119.574 135.9 116.574 132.828 112.404 131.472C111.843 132.934 111.38 134.431 111.018 135.954C112.638 136.231 114.211 136.734 115.692 137.448C117.93 138.666 119.574 139.266 119.574 137.472Z" fill="#92E3A9" stroke="#263238" stroke-width="1.1133" stroke-linecap="round" stroke-linejoin="round"/>
<path d="M117.264 122.034C116.297 123.508 115.408 125.032 114.6 126.6C115.863 126.934 117.074 127.439 118.2 128.1C122.826 130.782 123.72 131.1 122.232 127.2C121.332 124.752 119.184 123.09 117.264 122.034Z" fill="#92E3A9" stroke="#263238" stroke-width="1.1133" stroke-linecap="round" stroke-linejoin="round"/>
<path d="M166.74 117.15C166.74 117.15 173.844 125.298 175.614 134.13C177.384 142.962 176.934 149.004 174.474 151.494C172.014 153.984 169.26 153.36 167.568 151.422C165.876 149.484 167.568 141.978 167.568 141.978C167.568 141.978 164.352 135.24 160.008 130.716C155.664 126.192 154.842 125.526 154.842 125.526C154.842 125.526 160.752 117.288 166.74 117.15Z" fill="white"/>
<mask id="mask4_1342_720" style="mask-type:luminance" maskUnits="userSpaceOnUse" x="154" y="117" width="23" height="37">
<path d="M166.74 117.15C166.74 117.15 173.844 125.298 175.614 134.13C177.384 142.962 176.934 149.004 174.474 151.494C172.014 153.984 169.26 153.36 167.568 151.422C165.876 149.484 167.568 141.978 167.568 141.978C167.568 141.978 164.352 135.24 160.008 130.716C155.664 126.192 154.842 125.526 154.842 125.526C154.842 125.526 160.752 117.288 166.74 117.15Z" fill="white"/>
</mask>
<g mask="url(#mask4_1342_720)">
<path d="M166.74 117.15C160.74 117.288 154.812 125.55 154.812 125.55C154.812 125.55 155.628 126.222 159.978 130.74C160.792 131.597 161.557 132.498 162.27 133.44C164.54 129.605 167.784 126.438 171.672 124.26C170.241 121.749 168.591 119.37 166.74 117.15Z" fill="#92E3A9"/>
<path opacity="0.5" d="M166.74 117.15C160.74 117.288 154.812 125.55 154.812 125.55C154.812 125.55 155.628 126.222 159.978 130.74C160.792 131.597 161.557 132.498 162.27 133.44C164.54 129.605 167.784 126.438 171.672 124.26C170.241 121.749 168.591 119.37 166.74 117.15Z" fill="white"/>
</g>
<path d="M166.74 117.15C166.74 117.15 173.844 125.298 175.614 134.13C177.384 142.962 176.934 149.004 174.474 151.494C172.014 153.984 169.26 153.36 167.568 151.422C165.876 149.484 167.568 141.978 167.568 141.978C167.568 141.978 164.352 135.24 160.008 130.716C155.664 126.192 154.842 125.526 154.842 125.526C154.842 125.526 160.752 117.288 166.74 117.15Z" stroke="#263238" stroke-width="1.1133" stroke-linecap="round" stroke-linejoin="round"/>
<path d="M174.474 151.494C175.012 149.477 175.163 147.376 174.918 145.302" stroke="#263238" stroke-width="1.1133" stroke-linecap="round" stroke-linejoin="round"/>
<path d="M170.55 152.778C170.55 152.778 171.792 150.108 171.516 145.782" stroke="#263238" stroke-width="1.1133" stroke-linecap="round" stroke-linejoin="round"/>
<path d="M166.374 133.236C166.224 131.67 168.906 128.322 172.926 126.588C173.621 127.986 174.223 129.43 174.726 130.908C173.144 131.349 171.63 132.005 170.226 132.858C168.126 134.268 166.554 135 166.374 133.236Z" fill="#92E3A9" stroke="#263238" stroke-width="1.1133" stroke-linecap="round" stroke-linejoin="round"/>
<path d="M167.154 117.648C168.258 119.01 169.287 120.43 170.238 121.902C169.01 122.357 167.849 122.976 166.788 123.744C162.45 126.876 161.586 127.26 162.69 123.252C163.38 120.75 165.348 118.884 167.154 117.648Z" fill="#92E3A9" stroke="#263238" stroke-width="1.1133" stroke-linecap="round" stroke-linejoin="round"/>
<path d="M117.042 113.88C117.042 113.88 115.194 120.114 115.89 122.652C116.586 125.19 119.814 122.886 123.048 125.652C126.282 128.418 129.276 133.41 141.522 134.334C153.768 135.258 161.16 128.652 163.722 124.956C166.284 121.26 166.032 116.874 170.418 116.646C174.804 116.418 171.114 107.868 169.728 106.482C169.728 106.482 178.272 93.78 178.272 90.546C178.272 87.312 170.19 88.002 160.272 91.008C160.272 91.008 152.88 87.078 139.482 89.388C126.084 91.698 122.16 95.628 122.16 95.628C122.16 95.628 105.528 97.704 104.376 99.78C103.224 101.856 106.65 110.646 117.042 113.88Z" fill="white"/>
<mask id="mask5_1342_720" style="mask-type:luminance" maskUnits="userSpaceOnUse" x="104" y="88" width="75" height="47">
<path d="M117.042 113.88C117.042 113.88 115.194 120.114 115.89 122.652C116.586 125.19 119.814 122.886 123.048 125.652C126.282 128.418 129.276 133.41 141.522 134.334C153.768 135.258 161.16 128.652 163.722 124.956C166.284 121.26 166.032 116.874 170.418 116.646C174.804 116.418 171.114 107.868 169.728 106.482C169.728 106.482 178.272 93.78 178.272 90.546C178.272 87.312 170.19 88.002 160.272 91.008C160.272 91.008 152.88 87.078 139.482 89.388C126.084 91.698 122.16 95.628 122.16 95.628C122.16 95.628 105.528 97.704 104.376 99.78C103.224 101.856 106.65 110.646 117.042 113.88Z" fill="white"/>
</mask>
<g mask="url(#mask5_1342_720)">
<path d="M170.4 116.652C174.792 116.418 171.096 107.874 169.71 106.488C169.71 106.488 171.336 104.088 173.166 101.088C168.204 98.496 163.332 97.056 162.036 98.514C159.246 101.646 160.764 107.646 162.036 113.514C163.308 119.382 158.226 121.884 154.674 126.96C151.122 132.036 146.052 126.45 146.052 126.45C144.252 133.812 136.662 128.988 136.662 128.988C130.83 127.188 120.936 121.38 122.964 117.318C124.992 113.256 125.502 109.452 121.95 106.158C118.398 102.864 104.232 100.122 104.232 100.122C103.488 102.624 107.082 110.82 117.048 113.922C117.048 113.922 115.2 120.156 115.896 122.694C116.592 125.232 119.82 122.928 123.054 125.694C126.288 128.46 129.282 133.452 141.528 134.376C153.774 135.3 161.166 128.694 163.728 124.998C166.29 121.302 166.008 116.88 170.4 116.652Z" fill="#92E3A9"/>
<path opacity="0.5" d="M170.4 116.652C174.792 116.418 171.096 107.874 169.71 106.488C169.71 106.488 171.336 104.088 173.166 101.088C168.204 98.496 163.332 97.056 162.036 98.514C159.246 101.646 160.764 107.646 162.036 113.514C163.308 119.382 158.226 121.884 154.674 126.96C151.122 132.036 146.052 126.45 146.052 126.45C144.252 133.812 136.662 128.988 136.662 128.988C130.83 127.188 120.936 121.38 122.964 117.318C124.992 113.256 125.502 109.452 121.95 106.158C118.398 102.864 104.232 100.122 104.232 100.122C103.488 102.624 107.082 110.82 117.048 113.922C117.048 113.922 115.2 120.156 115.896 122.694C116.592 125.232 119.82 122.928 123.054 125.694C126.288 128.46 129.282 133.452 141.528 134.376C153.774 135.3 161.166 128.694 163.728 124.998C166.29 121.302 166.008 116.88 170.4 116.652Z" fill="white"/>
<path d="M152.334 118.044C152.508 119.508 149.256 121.086 145.086 121.572C140.916 122.058 137.388 121.266 137.214 119.772C137.04 118.278 140.292 116.736 144.468 116.25C148.644 115.764 152.166 116.586 152.334 118.044Z" fill="#92E3A9"/>
<path opacity="0.5" d="M152.334 118.044C152.508 119.508 149.256 121.086 145.086 121.572C140.916 122.058 137.388 121.266 137.214 119.772C137.04 118.278 140.292 116.736 144.468 116.25C148.644 115.764 152.166 116.586 152.334 118.044Z" fill="white"/>
</g>
<path d="M117.042 113.88C117.042 113.88 115.194 120.114 115.89 122.652C116.586 125.19 119.814 122.886 123.048 125.652C126.282 128.418 129.276 133.41 141.522 134.334C153.768 135.258 161.16 128.652 163.722 124.956C166.284 121.26 166.032 116.874 170.418 116.646C174.804 116.418 171.114 107.868 169.728 106.482C169.728 106.482 178.272 93.78 178.272 90.546C178.272 87.312 170.19 88.002 160.272 91.008C160.272 91.008 152.88 87.078 139.482 89.388C126.084 91.698 122.16 95.628 122.16 95.628C122.16 95.628 105.528 97.704 104.376 99.78C103.224 101.856 106.65 110.646 117.042 113.88Z" stroke="#263238" stroke-width="1.1133" stroke-miterlimit="10"/>
<path d="M164.814 95.4C158.814 99.432 160.932 103.464 163.614 105.702C165.252 107.07 167.892 106.902 169.698 106.518C169.698 106.518 178.242 93.816 178.242 90.582C178.248 90.552 170.784 91.338 164.814 95.4Z" fill="#92E3A9" stroke="#263238" stroke-width="1.1133" stroke-miterlimit="10"/>
<path d="M104.226 100.08C103.482 102.582 107.076 110.778 117.042 113.88C117.042 113.88 124.65 113.136 122.112 107.016C119.742 101.304 107.76 99.882 104.226 100.08Z" fill="#92E3A9" stroke="#263238" stroke-width="1.1133" stroke-miterlimit="10"/>
<path d="M139.446 89.4C138.66 89.538 137.904 89.682 137.178 89.826C138.378 95.886 140.352 105.978 142.116 105.978C143.88 105.978 145.23 94.914 145.806 88.716C143.673 88.8058 141.549 89.0343 139.446 89.4Z" fill="#92E3A9" stroke="#263238" stroke-width="1.1133" stroke-miterlimit="10"/>
<path d="M132.564 104.178C134.4 103.098 134.124 94.98 133.83 90.576C131.935 91.0468 130.07 91.6298 128.244 92.322C128.91 96.444 130.602 105.33 132.564 104.178Z" fill="#92E3A9" stroke="#263238" stroke-width="1.1133" stroke-miterlimit="10"/>
<path d="M150.33 100.446C152.208 101.106 153.264 94.356 153.858 89.16C151.961 88.8508 150.043 88.6884 148.122 88.674C148.062 92.94 148.296 99.732 150.33 100.446Z" fill="#92E3A9" stroke="#263238" stroke-width="1.1133" stroke-miterlimit="10"/>
<path d="M147.816 123.81C146.064 123.349 144.201 123.579 142.614 124.452C142.544 124.492 142.485 124.548 142.441 124.615C142.397 124.682 142.369 124.759 142.359 124.839C142.35 124.919 142.36 125 142.387 125.075C142.415 125.151 142.459 125.219 142.518 125.274L145.704 128.274C145.763 128.33 145.836 128.371 145.914 128.393C145.993 128.416 146.076 128.419 146.156 128.404C146.237 128.388 146.312 128.353 146.376 128.302C146.44 128.252 146.492 128.186 146.526 128.112L148.158 124.512C148.187 124.444 148.201 124.37 148.199 124.296C148.198 124.222 148.18 124.149 148.147 124.083C148.115 124.016 148.068 123.957 148.011 123.91C147.954 123.863 147.887 123.829 147.816 123.81Z" fill="#92E3A9" stroke="#263238" stroke-width="1.1133" stroke-linecap="round" stroke-linejoin="round"/>
<path d="M140.244 118.8C140.682 119.958 140.508 121.098 139.854 121.344C139.2 121.59 138.312 120.858 137.868 119.706C137.424 118.554 137.604 117.408 138.258 117.162C138.912 116.916 139.8 117.648 140.244 118.8Z" fill="#263238"/>
<path d="M148.932 117.978C148.704 119.178 149.076 120.288 149.766 120.414C150.456 120.54 151.2 119.664 151.428 118.446C151.656 117.228 151.284 116.142 150.594 116.01C149.904 115.878 149.16 116.766 148.932 117.978Z" fill="#263238"/>
<path d="M146.526 128.106C146.526 128.106 142.266 133.89 138.384 128.07" stroke="#263238" stroke-width="1.1133" stroke-linecap="round" stroke-linejoin="round"/>
<path d="M145.704 128.268C145.704 128.268 148.536 131.202 151.524 129.558C154.512 127.914 152.724 125.358 152.724 125.358" stroke="#263238" stroke-width="1.1133" stroke-linecap="round" stroke-linejoin="round"/>
<path d="M132.714 114.18C132.714 114.18 133.758 110.448 138.684 111.342" stroke="#263238" stroke-width="3.33991" stroke-linecap="round" stroke-linejoin="round"/>
<path d="M147.642 110.748C147.642 110.748 151.374 108.51 154.806 112.092" stroke="#263238" stroke-width="3.33991" stroke-linecap="round" stroke-linejoin="round"/>
<path d="M129.876 124.188L133.458 125.082" stroke="#263238" stroke-width="1.1133" stroke-miterlimit="10" stroke-linecap="round"/>
<path d="M133.008 126.426L129.876 127.02" stroke="#263238" stroke-width="1.1133" stroke-miterlimit="10" stroke-linecap="round"/>
<path d="M133.608 128.07L131.37 129.264" stroke="#263238" stroke-width="1.1133" stroke-miterlimit="10" stroke-linecap="round"/>
<path d="M156.3 122.544L159.438 121.794" stroke="#263238" stroke-width="1.1133" stroke-miterlimit="10" stroke-linecap="round"/>
<path d="M156.9 124.038H158.988" stroke="#263238" stroke-width="1.1133" stroke-miterlimit="10" stroke-linecap="round"/>
<path d="M157.344 125.532L160.182 126.276" stroke="#263238" stroke-width="1.1133" stroke-miterlimit="10" stroke-linecap="round"/>
</svg>
