<svg width="32" height="32" viewBox="0 0 32 32" fill="none" xmlns="http://www.w3.org/2000/svg">
<g clip-path="url(#clip0_1325_515)">
<path d="M28.4445 7.1111H21.9556L21.0134 4.69332C20.8845 4.35922 20.6576 4.07183 20.3626 3.86881C20.0676 3.66579 19.7182 3.5566 19.3601 3.55555H12.6401C12.2804 3.55481 11.929 3.66316 11.6323 3.8663C11.3355 4.06944 11.1073 4.3578 10.9778 4.69332L10.0445 7.1111H3.55561C3.08411 7.1111 2.63193 7.2984 2.29853 7.6318C1.96513 7.9652 1.77783 8.41738 1.77783 8.88888V26.6667C1.77783 27.1382 1.96513 27.5903 2.29853 27.9237C2.63193 28.2571 3.08411 28.4444 3.55561 28.4444H28.4445C28.916 28.4444 29.3682 28.2571 29.7016 27.9237C30.035 27.5903 30.2223 27.1382 30.2223 26.6667V8.88888C30.2223 8.41738 30.035 7.9652 29.7016 7.6318C29.3682 7.2984 28.916 7.1111 28.4445 7.1111ZM5.4845 12.1155C5.2959 12.1155 5.11503 12.0406 4.98167 11.9073C4.84831 11.7739 4.77339 11.593 4.77339 11.4044C4.77339 11.2158 4.84831 11.035 4.98167 10.9016C5.11503 10.7682 5.2959 10.6933 5.4845 10.6933H7.61783C7.80643 10.6933 7.9873 10.7682 8.12066 10.9016C8.25402 11.035 8.32894 11.2158 8.32894 11.4044C8.32894 11.593 8.25402 11.7739 8.12066 11.9073C7.9873 12.0406 7.80643 12.1155 7.61783 12.1155H5.4845ZM16.0001 24.8889C14.4178 24.8889 12.8711 24.4197 11.5555 23.5406C10.2399 22.6616 9.21452 21.4122 8.60902 19.9503C8.00352 18.4885 7.84509 16.88 8.15377 15.3282C8.46245 13.7763 9.22438 12.3508 10.3432 11.232C11.462 10.1132 12.8875 9.35128 14.4393 9.0426C15.9912 8.73392 17.5997 8.89234 19.0615 9.49784C20.5233 10.1033 21.7728 11.1287 22.6518 12.4443C23.5309 13.7599 24.0001 15.3066 24.0001 16.8889C24.0001 19.0106 23.1572 21.0454 21.6569 22.5457C20.1566 24.046 18.1218 24.8889 16.0001 24.8889Z" fill="#595D67"/>
<path d="M9.87549 16.9422C9.87728 18.1416 10.2222 19.3153 10.8696 20.325C11.5169 21.3346 12.4397 22.1379 13.5288 22.64L14.4977 21.0933C13.9075 20.8422 13.3787 20.4663 12.9476 19.9914C12.5164 19.5166 12.1932 18.954 12 18.3425C11.8068 17.7309 11.7483 17.0847 11.8285 16.4483C11.9086 15.812 12.1256 15.2005 12.4644 14.6559C12.8032 14.1114 13.2559 13.6466 13.7913 13.2935C14.3268 12.9404 14.9323 12.7074 15.5663 12.6104C16.2003 12.5135 16.8478 12.5549 17.4643 12.7319C18.0808 12.9088 18.6516 13.2171 19.1377 13.6356L20.1066 12.0711C19.186 11.3236 18.0724 10.8523 16.8948 10.7118C15.7173 10.5712 14.5241 10.7672 13.4534 11.277C12.3826 11.7867 11.4783 12.5895 10.845 13.5921C10.2118 14.5948 9.87565 15.7564 9.87549 16.9422Z" fill="#595D67"/>
</g>
<defs>
<clipPath id="clip0_1325_515">
<rect width="32" height="32" fill="white"/>
</clipPath>
</defs>
</svg>
