<svg width="16" height="14" viewBox="0 0 16 14" fill="none" xmlns="http://www.w3.org/2000/svg">
<path d="M13.3759 7.43297L7.75493 13L2.13394 7.43297C1.76318 7.07219 1.47114 6.63855 1.27621 6.15935C1.08128 5.68016 0.987677 5.1658 1.0013 4.64865C1.01492 4.13151 1.13547 3.62279 1.35536 3.15452C1.57525 2.68626 1.88971 2.26859 2.27895 1.92783C2.66819 1.58707 3.12376 1.33059 3.61699 1.17454C4.11022 1.0185 4.63041 0.966267 5.14482 1.02114C5.65922 1.07602 6.1567 1.2368 6.60591 1.49338C7.05512 1.74996 7.44634 2.09677 7.75493 2.51198C8.06486 2.09979 8.45653 1.75601 8.90544 1.50215C9.35434 1.24829 9.85081 1.08983 10.3638 1.03667C10.8767 0.98351 11.3951 1.0368 11.8866 1.19321C12.378 1.34962 12.8318 1.60578 13.2197 1.94565C13.6076 2.28553 13.9211 2.70181 14.1407 3.16843C14.3603 3.63505 14.4812 4.14198 14.4959 4.65748C14.5105 5.17298 14.4186 5.68596 14.2259 6.16431C14.0332 6.64266 13.7438 7.07609 13.3759 7.43747" stroke="#333333" stroke-width="2" stroke-linecap="round" stroke-linejoin="round"/>
</svg>
