<svg width="54" height="54" viewBox="0 0 54 54" fill="none" xmlns="http://www.w3.org/2000/svg">
<g clip-path="url(#clip0_1335_384)">
<path d="M27 0C29.4785 0 31.8691 0.316406 34.1719 0.949219C36.4746 1.58203 38.6191 2.49609 40.6055 3.69141C42.5918 4.88672 44.4111 6.29297 46.0635 7.91016C47.7158 9.52734 49.1309 11.3467 50.3086 13.3682C51.4863 15.3896 52.3916 17.543 53.0244 19.8281C53.6572 22.1133 53.9824 24.5039 54 27C54 29.4785 53.6836 31.8691 53.0508 34.1719C52.418 36.4746 51.5039 38.6191 50.3086 40.6055C49.1133 42.5918 47.707 44.4111 46.0898 46.0635C44.4727 47.7158 42.6533 49.1309 40.6318 50.3086C38.6104 51.4863 36.457 52.3916 34.1719 53.0244C31.8867 53.6572 29.4961 53.9824 27 54C24.5215 54 22.1309 53.6836 19.8281 53.0508C17.5254 52.418 15.3809 51.5039 13.3945 50.3086C11.4082 49.1133 9.58887 47.707 7.93652 46.0898C6.28418 44.4727 4.86914 42.6533 3.69141 40.6318C2.51367 38.6104 1.6084 36.457 0.975586 34.1719C0.342773 31.8867 0.0175781 29.4961 0 27C0 24.5215 0.316406 22.1309 0.949219 19.8281C1.58203 17.5254 2.49609 15.3809 3.69141 13.3945C4.88672 11.4082 6.29297 9.58887 7.91016 7.93652C9.52734 6.28418 11.3467 4.86914 13.3682 3.69141C15.3896 2.51367 17.543 1.6084 19.8281 0.975586C22.1133 0.342773 24.5039 0.0175781 27 0ZM29.9795 27L38.9971 17.9824L36.0176 15.0029L27 24.0205L17.9824 15.0029L15.0029 17.9824L24.0205 27L15.0029 36.0176L17.9824 38.9971L27 29.9795L36.0176 38.9971L38.9971 36.0176L29.9795 27Z" fill="#E74C3C"/>
</g>
<defs>
<clipPath id="clip0_1335_384">
<rect width="54" height="54" fill="white"/>
</clipPath>
</defs>
</svg>
