<svg width="64" height="64" viewBox="0 0 64 64" fill="none" xmlns="http://www.w3.org/2000/svg">
<mask id="mask0_1332_389" style="mask-type:luminance" maskUnits="userSpaceOnUse" x="3" y="3" width="58" height="58">
<path d="M32.0002 58.6667C35.5028 58.6712 38.9717 57.9835 42.2077 56.6431C45.4436 55.3027 48.3827 53.336 50.8562 50.856C53.3361 48.3826 55.3028 45.4434 56.6433 42.2075C57.9837 38.9715 58.6714 35.5026 58.6668 32C58.6713 28.4974 57.9836 25.0285 56.6432 21.7926C55.3028 18.5566 53.3361 15.6175 50.8562 13.144C48.3827 10.664 45.4436 8.69733 42.2077 7.35692C38.9717 6.0165 35.5028 5.3288 32.0002 5.33334C28.4976 5.32887 25.0287 6.0166 21.7928 7.35702C18.5568 8.69743 15.6177 10.6641 13.1442 13.144C10.6643 15.6175 8.69761 18.5566 7.3572 21.7926C6.01679 25.0285 5.32905 28.4974 5.33352 32C5.32898 35.5026 6.01668 38.9715 7.3571 42.2075C8.69752 45.4434 10.6642 48.3826 13.1442 50.856C15.6177 53.3359 18.5568 55.3026 21.7928 56.643C25.0287 57.9834 28.4976 58.6711 32.0002 58.6667Z" fill="white" stroke="white" stroke-width="4" stroke-linejoin="round"/>
<path d="M21.3335 32L29.3335 40L45.3335 24" stroke="black" stroke-width="4" stroke-linecap="round" stroke-linejoin="round"/>
</mask>
<g mask="url(#mask0_1332_389)">
<path d="M0 0H64V64H0V0Z" fill="#16A34A"/>
</g>
</svg>
