<svg width="36" height="36" viewBox="0 0 36 36" fill="none" xmlns="http://www.w3.org/2000/svg">
<rect width="36" height="36" rx="4" fill="#1C2331"/>
<g clip-path="url(#clip0_510_313)">
<path d="M19.582 19.2177L18 20.7997H16.6V22.1997H15.2V23.5997L13.8 24.9997H11V22.1997L16.782 16.4177C16.5102 15.5217 16.5456 14.5605 16.8826 13.687C17.2196 12.8134 17.8388 12.0774 18.6419 11.5961C19.4451 11.1147 20.386 10.9155 21.3153 11.0301C22.2446 11.1447 23.1089 11.5666 23.771 12.2287C24.4331 12.8908 24.855 13.7551 24.9696 14.6844C25.0842 15.6137 24.885 16.5546 24.4036 17.3578C23.9223 18.1609 23.1863 18.7801 22.3127 19.1171C21.4392 19.4541 20.478 19.4895 19.582 19.2177ZM22.984 15.9837C23.2773 15.69 23.477 15.316 23.5579 14.9089C23.6388 14.5018 23.5972 14.0798 23.4384 13.6963C23.2796 13.3128 23.0107 12.985 22.6657 12.7542C22.3207 12.5234 21.9151 12.4001 21.5 12.3997C20.9432 12.4002 20.4094 12.6218 20.016 13.0157L22.984 15.9837Z" fill="white"/>
</g>
<defs>
<clipPath id="clip0_510_313">
<rect width="14" height="14" fill="white" transform="translate(11 11)"/>
</clipPath>
</defs>
</svg>
