<svg width="36" height="36" viewBox="0 0 36 36" fill="none" xmlns="http://www.w3.org/2000/svg">
<rect width="36" height="36" rx="4" fill="#1C2331"/>
<path d="M17.653 24.9146L17.648 24.9116L17.629 24.9016C17.2344 24.6869 16.8469 24.4594 16.467 24.2196C15.5614 23.6497 14.6984 23.0147 13.885 22.3196C12.045 20.7326 10 18.3516 10 15.4996C10.0001 14.569 10.2886 13.6614 10.826 12.9017C11.3633 12.1419 12.1229 11.5674 13.0002 11.2573C13.8775 10.9472 14.8294 10.9166 15.7248 11.1699C16.6203 11.4232 17.4151 11.9478 18 12.6716C18.5849 11.9478 19.3797 11.4232 20.2752 11.1699C21.1706 10.9166 22.1225 10.9472 22.9998 11.2573C23.8771 11.5674 24.6367 12.1419 25.174 12.9017C25.7114 13.6614 25.9999 14.569 26 15.4996C26 18.3516 23.956 20.7326 22.115 22.3196C20.9593 23.307 19.7047 24.1723 18.371 24.9016L18.352 24.9116L18.347 24.9146H18.345C18.2387 24.9709 18.1204 25.0004 18.0001 25.0005C17.8799 25.0007 17.7614 24.9716 17.655 24.9156L17.653 24.9146Z" fill="white"/>
</svg>
