<svg width="36" height="36" viewBox="0 0 36 36" fill="none" xmlns="http://www.w3.org/2000/svg">
<rect width="36" height="36" rx="4" fill="#1C2331"/>
<path d="M14.3333 25C13.9667 25 13.6527 24.8693 13.3913 24.608C13.13 24.3467 12.9996 24.0329 13 23.6667V17C13 16.6333 13.1307 16.3193 13.392 16.058C13.6533 15.7967 13.9671 15.6662 14.3333 15.6667H15V14.3333C15 13.4111 15.3251 12.6249 15.9753 11.9747C16.6256 11.3244 17.4116 10.9996 18.3333 11C19.2556 11 20.0418 11.3251 20.692 11.9753C21.3422 12.6256 21.6671 13.4116 21.6667 14.3333V15.6667H22.3333C22.7 15.6667 23.014 15.7973 23.2753 16.0587C23.5367 16.32 23.6671 16.6338 23.6667 17V23.6667C23.6667 24.0333 23.536 24.3473 23.2747 24.6087C23.0133 24.87 22.6996 25.0004 22.3333 25H14.3333ZM18.3333 21.6667C18.7 21.6667 19.014 21.536 19.2753 21.2747C19.5367 21.0133 19.6671 20.6996 19.6667 20.3333C19.6667 19.9667 19.536 19.6527 19.2747 19.3913C19.0133 19.13 18.6996 18.9996 18.3333 19C17.9667 19 17.6527 19.1307 17.3913 19.392C17.13 19.6533 16.9996 19.9671 17 20.3333C17 20.7 17.1307 21.014 17.392 21.2753C17.6533 21.5367 17.9671 21.6671 18.3333 21.6667ZM16.3333 15.6667H20.3333V14.3333C20.3333 13.7778 20.1389 13.3056 19.75 12.9167C19.3611 12.5278 18.8889 12.3333 18.3333 12.3333C17.7778 12.3333 17.3056 12.5278 16.9167 12.9167C16.5278 13.3056 16.3333 13.7778 16.3333 14.3333V15.6667Z" fill="white"/>
</svg>
