<svg width="36" height="36" viewBox="0 0 36 36" fill="none" xmlns="http://www.w3.org/2000/svg">
<rect width="36" height="36" rx="4" fill="#1C2331"/>
<path d="M17.4998 13C18.5336 13 19.397 12.1944 19.4998 11.1875C19.5092 11.0937 19.4061 11 19.3123 11C19.2616 11.0001 19.2114 11.0096 19.1642 11.0281C19.158 11.0306 18.5048 11.2812 17.4998 11.2812C16.4948 11.2812 15.8405 11.0312 15.8355 11.0281C15.7822 11.0096 15.7262 11.0001 15.6698 11H15.668C15.6446 11.0012 15.6217 11.0071 15.6006 11.0172C15.5795 11.0273 15.5606 11.0414 15.545 11.0589C15.5294 11.0763 15.5174 11.0966 15.5096 11.1187C15.5019 11.1408 15.4985 11.1641 15.4999 11.1875C15.6045 12.1925 16.4686 13 17.4998 13Z" fill="white"/>
<path d="M24.6653 12.8094L20.625 11.395C20.6078 11.389 20.5893 11.3868 20.5711 11.3887C20.5529 11.3906 20.5353 11.3964 20.5196 11.4059C20.5039 11.4153 20.4904 11.428 20.4802 11.4432C20.47 11.4584 20.4632 11.4757 20.4604 11.4938C20.3435 12.1941 19.982 12.8303 19.4402 13.2892C18.8983 13.748 18.2113 13.9999 17.5013 13.9999C16.7913 13.9999 16.1043 13.748 15.5625 13.2892C15.0207 12.8303 14.6592 12.1941 14.5423 11.4938C14.5395 11.4754 14.5327 11.4578 14.5223 11.4424C14.5119 11.427 14.4982 11.414 14.4822 11.4046C14.4662 11.3951 14.4483 11.3894 14.4297 11.3877C14.4112 11.386 14.3925 11.3886 14.3751 11.395L10.3348 12.8094C10.2217 12.849 10.1266 12.9279 10.0668 13.0317C10.007 13.1355 9.98641 13.2573 10.0089 13.375L10.5285 16.125C10.5485 16.2298 10.6016 16.3255 10.6798 16.398C10.7581 16.4706 10.8575 16.5162 10.9635 16.5281L12.491 16.7006C12.5534 16.7077 12.6108 16.7379 12.6519 16.7853C12.693 16.8327 12.7148 16.8938 12.7129 16.9566L12.4838 24.4846C12.4808 24.5817 12.5061 24.6775 12.5566 24.7604C12.6071 24.8433 12.6806 24.9097 12.7682 24.9515C12.841 24.9844 12.9202 25.001 13.0001 25H22C22.0799 25.001 22.1591 24.9844 22.2319 24.9515C22.3195 24.9097 22.3931 24.8433 22.4436 24.7604C22.4941 24.6775 22.5193 24.5817 22.5163 24.4846L22.2872 16.9566C22.2853 16.8938 22.3071 16.8327 22.3482 16.7853C22.3893 16.7379 22.4467 16.7077 22.5091 16.7006L24.0366 16.5281C24.1426 16.5162 24.242 16.4706 24.3203 16.398C24.3986 16.3255 24.4516 16.2298 24.4716 16.125L24.9913 13.375C25.0137 13.2573 24.9932 13.1355 24.9334 13.0317C24.8735 12.9279 24.7784 12.849 24.6653 12.8094Z" fill="white"/>
</svg>
