<svg width="36" height="36" viewBox="0 0 36 36" fill="none" xmlns="http://www.w3.org/2000/svg">
<rect width="36" height="36" rx="4" fill="#1C2331"/>
<path fill-rule="evenodd" clip-rule="evenodd" d="M21 11V12.27C21 12.4689 21.079 12.6597 21.2197 12.8003C21.3603 12.941 21.5511 13.02 21.75 13.02C21.9489 13.02 22.1397 12.941 22.2803 12.8003C22.421 12.6597 22.5 12.4689 22.5 12.27V11H24.75C25.0455 11 25.3381 11.0582 25.611 11.1713C25.884 11.2843 26.1321 11.4501 26.341 11.659C26.5499 11.8679 26.7157 12.116 26.8287 12.389C26.9418 12.6619 27 12.9545 27 13.25V15.878C27 16.0331 26.9519 16.1843 26.8623 16.3109C26.7728 16.4376 26.6462 16.5333 26.5 16.585C26.207 16.6881 25.9532 16.8796 25.7737 17.133C25.5942 17.3865 25.4978 17.6894 25.4978 18C25.4978 18.3106 25.5942 18.6135 25.7737 18.867C25.9532 19.1204 26.207 19.3119 26.5 19.415C26.8 19.521 27 19.805 27 20.122V22.75C27 23.0455 26.9418 23.3381 26.8287 23.611C26.7157 23.884 26.5499 24.1321 26.341 24.341C26.1321 24.5499 25.884 24.7157 25.611 24.8287C25.3381 24.9418 25.0455 25 24.75 25H22.5V23.73C22.5 23.5311 22.421 23.3403 22.2803 23.1997C22.1397 23.059 21.9489 22.98 21.75 22.98C21.5511 22.98 21.3603 23.059 21.2197 23.1997C21.079 23.3403 21 23.5311 21 23.73V25H11.25C10.6533 25 10.081 24.7629 9.65901 24.341C9.23705 23.919 9 23.3467 9 22.75V20.122C9 19.804 9.2 19.521 9.5 19.415C9.79299 19.3119 10.0468 19.1204 10.2263 18.867C10.4058 18.6135 10.5022 18.3106 10.5022 18C10.5022 17.6894 10.4058 17.3865 10.2263 17.133C10.0468 16.8796 9.79299 16.6881 9.5 16.585C9.35379 16.5333 9.2272 16.4376 9.13766 16.3109C9.04812 16.1843 9.00002 16.0331 9 15.878V13.25C9 12.6533 9.23705 12.081 9.65901 11.659C10.081 11.2371 10.6533 11 11.25 11H21ZM22.5 15.396C22.5 15.1971 22.421 15.0063 22.2803 14.8657C22.1397 14.725 21.9489 14.646 21.75 14.646C21.5511 14.646 21.3603 14.725 21.2197 14.8657C21.079 15.0063 21 15.1971 21 15.396V16.438C21 16.6369 21.079 16.8277 21.2197 16.9683C21.3603 17.109 21.5511 17.188 21.75 17.188C21.9489 17.188 22.1397 17.109 22.2803 16.9683C22.421 16.8277 22.5 16.6369 22.5 16.438V15.396ZM22.5 19.563C22.5 19.3641 22.421 19.1733 22.2803 19.0327C22.1397 18.892 21.9489 18.813 21.75 18.813C21.5511 18.813 21.3603 18.892 21.2197 19.0327C21.079 19.1733 21 19.3641 21 19.563V20.604C21 20.8029 21.079 20.9937 21.2197 21.1343C21.3603 21.275 21.5511 21.354 21.75 21.354C21.9489 21.354 22.1397 21.275 22.2803 21.1343C22.421 20.9937 22.5 20.8029 22.5 20.604V19.563ZM14 18.75C14 18.5511 14.079 18.3603 14.2197 18.2197C14.3603 18.079 14.5511 18 14.75 18H18.25C18.4489 18 18.6397 18.079 18.7803 18.2197C18.921 18.3603 19 18.5511 19 18.75C19 18.9489 18.921 19.1397 18.7803 19.2803C18.6397 19.421 18.4489 19.5 18.25 19.5H14.75C14.5511 19.5 14.3603 19.421 14.2197 19.2803C14.079 19.1397 14 18.9489 14 18.75ZM14 21.25C14 21.0511 14.079 20.8603 14.2197 20.7197C14.3603 20.579 14.5511 20.5 14.75 20.5H16.25C16.4489 20.5 16.6397 20.579 16.7803 20.7197C16.921 20.8603 17 21.0511 17 21.25C17 21.4489 16.921 21.6397 16.7803 21.7803C16.6397 21.921 16.4489 22 16.25 22H14.75C14.5511 22 14.3603 21.921 14.2197 21.7803C14.079 21.6397 14 21.4489 14 21.25Z" fill="white"/>
</svg>
