<svg width="36" height="36" viewBox="0 0 36 36" fill="none" xmlns="http://www.w3.org/2000/svg">
<rect width="36" height="36" rx="4" fill="#1C2331"/>
<path d="M13.1 12.4532C12.4175 12.5204 11.9583 12.6723 11.6153 13.0153C11 13.6299 11 14.6204 11 16.6V19.4C11 21.3796 11 22.3701 11.6153 22.9847C11.9583 23.3277 12.4175 23.4796 13.1 23.5468M22.9 12.4532C23.5825 12.5204 24.0417 12.6723 24.3847 13.0153C25 13.6299 25 14.6204 25 16.6V19.4C25 21.3796 25 22.3701 24.3847 22.9847C24.0417 23.3277 23.5825 23.4796 22.9 23.5468M13.1 15.2C13.1 13.2204 13.1 12.2299 13.7153 11.6153C14.3299 11 15.3204 11 17.3 11H18.7C20.6796 11 21.6701 11 22.2847 11.6153C22.9 12.2299 22.9 13.2204 22.9 15.2V20.8C22.9 22.7796 22.9 23.7701 22.2847 24.3847C21.6701 25 20.6796 25 18.7 25H17.3C15.3204 25 14.3299 25 13.7153 24.3847C13.1 23.7701 13.1 22.7796 13.1 20.8V15.2Z" stroke="white"/>
<path d="M15.9 18.6999H20.1M15.9 15.8999H20.1M15.9 21.4999H18" stroke="white" stroke-linecap="round"/>
</svg>
